<svg width="128" height="128" viewBox="0 0 128 128" fill="none" xmlns="http://www.w3.org/2000/svg">
<rect width="128" height="128" fill="black"/>
<path fill-rule="evenodd" clip-rule="evenodd" d="M42.6667 52.0747C40.8658 51.8811 39.0444 52.0887 37.3333 52.6827V42.6667H58.6667V37.68C58.6667 37.5627 58.6631 37.4471 58.656 37.3333C58.5493 35.9467 57.8773 34.6667 57.152 33.4667C56.4201 32.253 56.0238 30.8668 56.0035 29.4497C55.9832 28.0326 56.3398 26.6356 57.0366 25.4015C57.7335 24.1675 58.7457 23.1407 59.9697 22.4262C61.1936 21.7118 62.5854 21.3353 64.0027 21.3353C65.4199 21.3353 66.8117 21.7118 68.0357 22.4262C69.2596 23.1407 70.2718 24.1675 70.9687 25.4015C71.6656 26.6356 72.0221 28.0326 72.0018 29.4497C71.9816 30.8668 71.5852 32.253 70.8533 33.4667C70.1227 34.6667 69.4453 35.952 69.344 37.3333L69.3333 37.68V42.6667H90.6667V52.6827C88.9576 52.0799 87.1342 51.872 85.3333 52.0747C83.6539 52.2644 82.0335 52.8067 80.5782 53.6661C79.1229 54.5256 77.8655 55.6827 76.8885 57.0618C75.9115 58.4409 75.2368 60.0108 74.9086 61.6688C74.5804 63.3268 74.6062 65.0353 74.9842 66.6826C75.3622 68.33 76.0839 69.8788 77.1021 71.2279C78.1202 72.5769 79.4119 73.6956 80.8924 74.5108C82.3729 75.326 84.009 75.8192 85.6934 75.9582C87.3778 76.0972 89.0725 75.8788 90.6667 75.3173V85.3333H69.3333V90.32L69.344 90.6667C69.4507 92.0533 70.1227 93.3333 70.848 94.5333C71.5799 95.747 71.9762 97.1332 71.9965 98.5503C72.0168 99.9674 71.6602 101.364 70.9634 102.598C70.2665 103.833 69.2543 104.859 68.0303 105.574C66.8064 106.288 65.4146 106.665 63.9973 106.665C62.5801 106.665 61.1883 106.288 59.9644 105.574C58.7404 104.859 57.7282 103.833 57.0313 102.598C56.3344 101.364 55.9779 99.9674 55.9982 98.5503C56.0184 97.1332 56.4148 95.747 57.1467 94.5333C57.8773 93.3333 58.5547 92.048 58.656 90.6667L58.6667 90.32V85.3333H37.3333V75.3173C39.0424 75.9201 40.8658 76.128 42.6667 75.9253C45.5995 75.5966 48.3083 74.1987 50.2755 71.9988C52.2426 69.7988 53.3301 66.9512 53.3301 64C53.3301 61.0488 52.2426 58.2012 50.2755 56.0012C48.3083 53.8013 45.5995 52.4034 42.6667 52.0747ZM53.1893 90.6667H37.3333C35.9188 90.6667 34.5623 90.1048 33.5621 89.1046C32.5619 88.1044 32 86.7478 32 85.3333V75.3173C31.9999 74.4642 32.2045 73.6236 32.5966 72.8659C32.9887 72.1082 33.5568 71.4556 34.2532 70.963C34.9497 70.4703 35.7541 70.1518 36.5991 70.0344C37.4441 69.9169 38.3049 70.0039 39.1093 70.288C39.8062 70.5369 40.5476 70.6631 41.3333 70.6667C42.3022 70.6631 43.2586 70.4484 44.136 70.0376C45.0134 69.6267 45.7908 69.0295 46.4139 68.2876C47.037 67.5457 47.4909 66.6769 47.744 65.7417C47.9971 64.8065 48.0433 63.8274 47.8795 62.8725C47.7156 61.9176 47.3456 61.0099 46.7952 60.2126C46.2447 59.4153 45.5271 58.7475 44.6923 58.2558C43.8576 57.7641 42.9256 57.4602 41.9614 57.3654C40.9972 57.2706 40.0239 57.387 39.1093 57.7067C38.3058 57.9905 37.4459 58.0775 36.6018 57.9606C35.7576 57.8438 34.9538 57.5263 34.2576 57.0348C33.5613 56.5433 32.993 55.8922 32.6003 55.1359C32.2075 54.3796 32.0016 53.5402 32 52.688V42.6667C32 41.2522 32.5619 39.8956 33.5621 38.8954C34.5623 37.8952 35.9188 37.3333 37.3333 37.3333H53.1893C53.0103 36.9538 52.8091 36.5852 52.5867 36.2293C51.3652 34.2068 50.7031 31.896 50.6681 29.5335C50.6332 27.171 51.2267 24.8416 52.3878 22.7838C53.549 20.726 55.2361 19.0138 57.2765 17.8223C59.3169 16.6309 61.6372 16.003 64 16.003C66.3628 16.003 68.6831 16.6309 70.7235 17.8223C72.7639 19.0138 74.451 20.726 75.6122 22.7838C76.7733 24.8416 77.3668 27.171 77.3319 29.5335C77.2969 31.896 76.6348 34.2068 75.4133 36.2293C75.1147 36.72 74.9333 37.0613 74.8107 37.3333H90.6667C92.0812 37.3333 93.4377 37.8952 94.4379 38.8954C95.4381 39.8956 96 41.2522 96 42.6667V52.6827C96.0001 53.5358 95.7955 54.3764 95.4034 55.1341C95.0113 55.8918 94.4432 56.5444 93.7468 57.037C93.0503 57.5297 92.2459 57.8482 91.4009 57.9656C90.5559 58.0831 89.6951 57.9961 88.8907 57.712C87.8853 57.3579 86.8098 57.25 85.7541 57.3974C84.6985 57.5447 83.6936 57.9431 82.8236 58.559C81.9537 59.1748 81.2441 59.9903 80.7544 60.9371C80.2647 61.8838 80.0092 62.9341 80.0092 64C80.0092 65.0659 80.2647 66.1162 80.7544 67.0629C81.2441 68.0097 81.9537 68.8252 82.8236 69.4411C83.6936 70.0569 84.6985 70.4553 85.7541 70.6026C86.8098 70.75 87.8853 70.6421 88.8907 70.288C89.6951 70.0039 90.5559 69.9169 91.4009 70.0344C92.2459 70.1518 93.0503 70.4703 93.7468 70.963C94.4432 71.4556 95.0113 72.1082 95.4034 72.8659C95.7955 73.6236 96.0001 74.4642 96 75.3173V85.3333C96 86.7478 95.4381 88.1044 94.4379 89.1046C93.4377 90.1048 92.0812 90.6667 90.6667 90.6667H74.8107C74.928 90.9333 75.12 91.28 75.4133 91.7707C76.6348 93.7932 77.2969 96.104 77.3319 98.4665C77.3668 100.829 76.7733 103.158 75.6122 105.216C74.451 107.274 72.7639 108.986 70.7235 110.178C68.6831 111.369 66.3628 111.997 64 111.997C61.6372 111.997 59.3169 111.369 57.2765 110.178C55.2361 108.986 53.549 107.274 52.3878 105.216C51.2267 103.158 50.6332 100.829 50.6681 98.4665C50.7031 96.104 51.3652 93.7932 52.5867 91.7707C52.8853 91.28 53.0667 90.9387 53.1893 90.6667Z" fill="white"/>
</svg>
