<?xml version="1.0" encoding="UTF-8"?>
<!-- Uploaded to: SVG Find, www.svgrepo.com, Generator: SVG Find Mixer Tools -->
<svg fill="#ffffff" width="800px" height="800px" version="1.1" viewBox="144 144 512 512" xmlns="http://www.w3.org/2000/svg">
 <g>
  <path d="m591.12 309.84c-4.8242-11.883-11.145-23.098-18.812-33.379-8.2305-11.121-17.652-21.309-28.098-30.387-36.594-31.949-73.859-45.344-98.672-51.012-25.441-5.7461-43.027-4.7695-45.543-4.5938-2.5195-0.18359-20.102-1.1523-45.57 4.6211-24.812 5.625-62.074 19.039-98.672 51.012-21.297 18.586-37.941 41.238-46.887 63.762-8.7266 21.984-9.6172 42.141-2.4805 56.762 5.2578 10.762 19.812 27.711 58.16 20.277 9.4023-1.8203 18.023-3.4844 25.965-4.9688-2.3047 9.1367-7.0469 15.625-12.469 23.004-1.3594 1.8516-2.7656 3.7773-4.1797 5.7891-8.9062 12.727-14.547 27.211-15.891 40.797-0.98828 10.078 2.2812 19.34 5.4414 28.34 1.4062 4 2.8672 8.1289 3.8672 12.172 4.5391 18.344 5.9844 47.73-1.5742 68.895l-0.003907 0.003907c-1.2266 3.207-0.24219 6.8398 2.4375 8.9922 3.2188 2.8008 8.6914 4.2148 14.609 4.2148v-0.003907c5.6953 0.042969 11.32-1.2539 16.426-3.7773 8.4766-4.4102 12.594-11.965 11.582-21.215-1.2578-11.562-7.5898-26.266-14.297-41.828-9.3828-21.789-19.09-44.324-14.68-58.102 2.0664-6.4531 5.7891-12.211 10.078-18.895 7.7656-12.016 17.355-26.867 20.184-52.168 2.6836-0.44531 5.2656-0.85156 7.7656-1.2578-0.67969 12.66 0.37891 26.242 3.1484 40.457 11.039 56.508 13.227 81.121 3.4141 106.68-7.7227 20.152-5.8867 57.812 7.9844 74.363 4.6094 5.4961 10.297 8.3242 16.625 8.3242v-0.003907c1.457-0.003906 2.9141-0.14844 4.3438-0.42969 8.5195-1.6445 13.973-5.3359 16.203-10.965 4.9375-12.465-7.7227-29.984-14.523-39.398-2.9844-4.1328-1.2891-16.18 0.51172-28.93 2.8008-19.938 6.2969-44.746-2.9219-63.605-9.5156-19.445-14.637-58.824-11.75-89.188 14.07-0.96875 25.07-0.11328 35.266 2.9727 9.3906 2.8516 19.246 3.8359 29.016 2.9023-2.0898 10.125-7.1055 16.965-12.879 24.836-1.3672 1.8516-2.7695 3.7773-4.1875 5.793-8.9062 12.727-14.547 27.211-15.895 40.797-0.98828 10.078 2.2812 19.34 5.4414 28.34 1.4102 4 2.8672 8.1289 3.8672 12.172 4.5391 18.344 5.9844 47.73-1.5742 68.895l-0.003906 0.003906c-1.2227 3.2109-0.23828 6.8477 2.4453 9 3.2109 2.7969 8.6914 4.207 14.609 4.207 5.6953 0.039063 11.32-1.2539 16.426-3.7773 8.4766-4.4102 12.594-11.965 11.586-21.215-1.2578-11.562-7.5938-26.262-14.301-41.824-9.3906-21.789-19.094-44.324-14.68-58.109 2.0664-6.4531 5.7891-12.219 10.078-18.895 8.0469-12.457 18.004-27.859 20.453-54.789 8.2695-1.6758 17.324-2.0469 28.219-1.3086 3.5 30.543-1.5664 72.078-11.43 92.23-9.2148 18.836-5.7227 43.641-2.9219 63.574 1.8008 12.754 3.4961 24.801 0.51172 28.93-6.8008 9.4141-19.461 26.934-14.523 39.398 2.2305 5.668 7.6836 9.3203 16.203 10.965 1.4297 0.28125 2.8867 0.42578 4.3438 0.42578 6.3281 0 12.016-2.8281 16.625-8.3242 13.855-16.551 15.707-54.211 7.9805-74.363-9.8008-25.555-7.6211-50.168 3.418-106.68 3.0039-15.367 3.9922-29.977 2.9648-43.496 2.4688 0.36719 5.0078 0.77344 7.6523 1.2109 2.3867 27.199 12.395 42.699 20.492 55.23 4.3125 6.668 8.0352 12.426 10.078 18.895 4.4102 13.777-5.2969 36.32-14.68 58.109-6.707 15.562-13.043 30.266-14.297 41.824-1.0156 9.25 3.1055 16.781 11.582 21.215v-0.003906c5.1055 2.5234 10.73 3.8164 16.426 3.7773 5.918 0 11.398-1.4102 14.609-4.2148 2.6797-2.1484 3.6641-5.7812 2.4375-8.9922-7.5586-21.168-6.1133-50.551-1.5742-68.895 1-4.043 2.4609-8.1875 3.8672-12.172 3.1484-8.9727 6.4297-18.262 5.4414-28.34-1.2617-13.566-6.9023-28.051-15.809-40.777-1.418-2.0156-2.8203-3.9297-4.1758-5.7734-6.0078-8.1875-11.195-15.254-13.137-26.059v-0.10156c8.1289 1.5117 17.004 3.2109 26.645 5.0898v-0.003906c5.8086 1.1719 11.711 1.7852 17.637 1.832 25.406 0 36.16-13.188 40.52-22.109 7.1211-14.598 6.2305-34.754-2.4961-56.762zm-303.8 117.49c-4.332 6.6992-8.418 13.023-10.707 20.152-5.0391 15.742 5.082 39.195 14.863 61.898 6.543 15.184 12.723 29.523 13.887 40.273 0.96484 8.8164-4.1992 13.469-8.7031 15.824-8.5156 4.4453-20.844 3.8789-24.965 0.29688-1.0781-0.9375-1.3359-1.832-0.89453-3.0859 7.9414-22.223 6.4688-52.898 1.7305-72.02-1.0625-4.2969-2.5625-8.5508-4.0117-12.672-3.1055-8.8164-6.0312-17.117-5.1562-25.984 1.2578-12.672 6.5547-26.242 14.938-38.215 1.3789-1.9727 2.7656-3.8594 4.1055-5.668 5.9648-8.125 11.594-15.82 13.898-27.289 3.5273-0.63281 6.918-1.2344 10.172-1.8008-2.8398 23.059-11.492 36.426-19.156 48.289zm62.441 38.414c8.4844 17.336 5.1211 41.238 2.418 60.457-2.1211 15.062-3.7773 26.961 0.47266 32.859 5.75 7.9609 17.715 24.523 13.855 34.227-1.5039 3.7773-5.6094 6.3672-12.191 7.6406-6.1133 1.1758-11.426-0.85547-15.789-6.0664-12.363-14.746-14.223-50.238-7.0547-68.906 10.27-26.789 8.0977-52.02-3.1484-109.65-2.7695-14.184-3.7773-27.711-3.0039-40.203 4.2695-0.58594 8.2891-1.0625 12.086-1.4219-2.8398 31.484 2.3906 70.738 12.355 91.094zm53.789-38.445c-4.332 6.6992-8.418 13.031-10.707 20.152-5.0391 15.742 5.0898 39.203 14.875 61.91 6.5352 15.176 12.707 29.512 13.887 40.262 0.95703 8.8164-4.207 13.469-8.7109 15.824-8.5156 4.4453-20.844 3.8789-24.965 0.29688-1.082-0.94531-1.3398-1.832-0.89453-3.0859 7.9336-22.223 6.4609-52.898 1.7305-72.02-1.0625-4.2969-2.5625-8.5508-4.0195-12.672-3.0977-8.8164-6.0273-17.117-5.1562-25.977 1.2578-12.672 6.5625-26.25 14.938-38.219 1.3867-1.9766 2.7695-3.8672 4.1172-5.6992 6.1328-8.3516 11.926-16.246 14.094-28.289 0.03125-0.18359 0.058594-0.34766 0.089844-0.52344h0.003906c3.043-0.52734 6.0547-1.2383 9.0117-2.1328 0.37109-0.11328 0.75-0.22656 1.1289-0.32812-2.582 24.465-11.5 38.262-19.422 50.523zm68.121-8.0234c-11.262 57.637-13.434 82.863-3.1484 109.65 7.168 18.684 5.3086 54.16-7.0703 68.934-4.3633 5.207-9.6719 7.2422-15.789 6.0664-6.582-1.2578-10.707-3.8398-12.191-7.6406-3.8398-9.6992 8.125-26.266 13.855-34.227 4.2695-5.9023 2.5938-17.797 0.47266-32.859-2.7031-19.203-6.0664-43.094 2.418-60.457 10.309-21.066 15.504-62.43 12.066-94.168 3.8164 0.35938 7.8516 0.83594 12.16 1.4219 1.1602 13.422 0.23047 27.949-2.7734 43.301zm45.91-8.1445c1.3359 1.8281 2.7188 3.7109 4.1016 5.668 8.3828 11.965 13.691 25.535 14.938 38.207 0.875 8.8672-2.0547 17.18-5.1562 25.984-1.4492 4.1172-2.9492 8.375-4.0117 12.672-4.7344 19.105-6.2109 49.797 1.7305 72.027 0.44141 1.2578 0.18359 2.1367-0.89453 3.0781-4.1172 3.582-16.449 4.1484-24.965-0.29688-4.5039-2.3555-9.668-7.0078-8.7031-15.824 1.1641-10.75 7.3438-25.082 13.855-40.262 9.7852-22.711 19.902-46.191 14.867-61.91-2.2852-7.1406-6.3789-13.469-10.707-20.152-8.0234-12.418-17.059-26.414-19.523-51.363 3.1992 0.55469 6.5273 1.1445 9.9805 1.7695 0.10547 0.71875 0.21875 1.418 0.34766 2.1094 2.1992 12.059 8.0156 19.957 14.137 28.32zm69.902-47.535c-7.5898 15.625-25.645 21.508-50.754 16.629-42.344-8.1875-69.223-13.188-90.023-13.188-9.9961 0-18.59 1.1523-26.828 3.6445-12.965 3.9375-26.809 3.9375-39.777 0-25.348-7.6836-54.16-2.625-116.85 9.5391-25.129 4.875-43.164-1.0156-50.777-16.602-11.922-24.375 2.6758-73.098 47.711-112.43 35.441-30.934 71.453-43.949 95.43-49.422 26.023-5.9453 43.902-4.5391 44.082-4.5234 0.19141 0.011718 0.38281 0.011718 0.57422 0 0.17578 0 18.055-1.4219 44.082 4.5234 23.977 5.4727 59.984 18.488 95.43 49.422 45.051 39.328 59.648 88.051 47.727 112.43z"/>
  <path d="m453.84 236.69c-16.758 0-30.348 15.402-30.348 34.398 0 18.992 13.59 34.398 30.348 34.398s30.336-15.398 30.336-34.398-13.586-34.398-30.336-34.398zm-11.02 36.816c-5.1523 0-9.332-4.7344-9.332-10.578s4.1797-10.586 9.332-10.586c5.1523 0 9.3438 4.7344 9.3438 10.586 0 5.8477-4.1992 10.578-9.3438 10.578z"/>
  <path d="m346.15 236.69c-16.75 0-30.336 15.402-30.336 34.398 0 18.992 13.582 34.398 30.336 34.398 16.75 0 30.344-15.398 30.344-34.398s-13.586-34.398-30.344-34.398zm11.023 36.816c-5.1562 0-9.3438-4.7344-9.3438-10.578s4.1875-10.586 9.3438-10.586 9.332 4.7344 9.332 10.586c0 5.8477-4.168 10.578-9.332 10.578z"/>
 </g>
</svg>